<svg width="16" height="16" viewBox="0 0 16 16" fill="none" xmlns="http://www.w3.org/2000/svg">
<path d="M7.23915 2.34154C7.47916 1.60474 8.52156 1.60474 8.76076 2.34154L9.61676 4.97514C9.66905 5.13553 9.77072 5.27528 9.90721 5.37442C10.0437 5.47356 10.2081 5.52702 10.3768 5.52714H13.1464C13.9216 5.52714 14.2432 6.51914 13.6168 6.97514L11.3768 8.60234C11.24 8.70156 11.1381 8.84155 11.0858 9.00222C11.0335 9.1629 11.0334 9.33601 11.0856 9.49674L11.9416 12.1303C12.1816 12.8671 11.3376 13.4807 10.7096 13.0247L8.46955 11.3975C8.33292 11.2983 8.1684 11.2449 7.99956 11.2449C7.83071 11.2449 7.66619 11.2983 7.52955 11.3975L5.28956 13.0247C4.66235 13.4807 3.81915 12.8671 4.05835 12.1303L4.91436 9.49674C4.96649 9.33601 4.9664 9.1629 4.91409 9.00222C4.86178 8.84155 4.75993 8.70156 4.62315 8.60234L2.38395 6.97594C1.75755 6.51994 2.07995 5.52794 2.85435 5.52794H5.62315C5.79199 5.52798 5.95652 5.47461 6.09317 5.37546C6.22983 5.27631 6.33162 5.13646 6.38396 4.97594L7.23996 2.34234L7.23915 2.34154Z" fill="#2F302C"/>
</svg>
